<svg width="379" height="49" viewBox="0 0 379 49" fill="none" xmlns="http://www.w3.org/2000/svg">
<g clip-path="url(#clip0_4563_298)">
<path d="M47.4 43C47.64 41.208 47.872 39.416 48.096 37.624C48.32 35.832 48.56 33.888 48.816 31.792L50.232 20.32C50.504 18.256 50.752 16.304 50.976 14.464C51.2 12.624 51.432 10.728 51.672 8.776H59.664C60.432 10.728 61.16 12.6 61.848 14.392C62.552 16.168 63.248 17.936 63.936 19.696L68.016 30.16H68.544L72.504 19.72C73.176 17.944 73.84 16.184 74.496 14.44C75.168 12.696 75.872 10.808 76.608 8.776H84.504C84.744 10.696 84.976 12.576 85.2 14.416C85.44 16.256 85.696 18.232 85.968 20.344L87.432 31.864C87.688 33.944 87.928 35.864 88.152 37.624C88.392 39.384 88.624 41.176 88.848 43H81.336C81.048 40.6 80.768 38.32 80.496 36.16C80.224 34 79.976 31.976 79.752 30.088L78.744 21.976H78.216L75.24 30.688C74.52 32.832 73.792 34.96 73.056 37.072C72.336 39.168 71.664 41.144 71.04 43H65.808C65.36 41.8 64.872 40.512 64.344 39.136C63.832 37.76 63.304 36.36 62.76 34.936C62.216 33.496 61.68 32.088 61.152 30.712L57.84 21.976H57.312L56.328 30.04C56.104 31.944 55.856 33.984 55.584 36.16C55.328 38.32 55.056 40.6 54.768 43H47.4ZM103.032 43.648C100.856 43.648 98.9604 43.304 97.3444 42.616C95.7444 41.928 94.4164 40.992 93.3604 39.808C92.3204 38.624 91.5364 37.272 91.0084 35.752C90.4964 34.216 90.2404 32.616 90.2404 30.952C90.2404 28.568 90.7204 26.432 91.6804 24.544C92.6564 22.64 94.0804 21.144 95.9524 20.056C97.8404 18.952 100.152 18.4 102.888 18.4C105 18.4 106.848 18.72 108.432 19.36C110.032 19.984 111.36 20.872 112.416 22.024C113.488 23.16 114.288 24.496 114.816 26.032C115.344 27.552 115.608 29.192 115.608 30.952C115.608 33.368 115.12 35.536 114.144 37.456C113.168 39.36 111.744 40.872 109.872 41.992C108 43.096 105.72 43.648 103.032 43.648ZM103.008 37.792C104.208 37.792 105.192 37.472 105.96 36.832C106.744 36.176 107.328 35.328 107.712 34.288C108.112 33.248 108.312 32.136 108.312 30.952C108.312 29.544 108.088 28.344 107.64 27.352C107.192 26.344 106.568 25.576 105.768 25.048C104.968 24.52 104.04 24.256 102.984 24.256C101.8 24.256 100.8 24.552 99.9844 25.144C99.1844 25.736 98.5764 26.536 98.1604 27.544C97.7604 28.552 97.5604 29.688 97.5604 30.952C97.5604 32.136 97.7604 33.248 98.1604 34.288C98.5764 35.328 99.1844 36.176 99.9844 36.832C100.8 37.472 101.808 37.792 103.008 37.792ZM117.824 43C117.824 41.288 117.824 39.632 117.824 38.032C117.824 36.416 117.824 34.616 117.824 32.632V30.232C117.824 28.392 117.824 26.544 117.824 24.688C117.824 22.832 117.824 20.952 117.824 19.048L123.848 18.688L124.16 22.84H124.76C125.304 22.072 125.944 21.352 126.68 20.68C127.416 19.992 128.264 19.44 129.224 19.024C130.2 18.608 131.304 18.4 132.536 18.4C134.376 18.4 135.8 18.864 136.808 19.792C137.832 20.704 138.52 22.024 138.872 23.752L139.352 23.824C139.448 24.288 139.52 24.776 139.568 25.288C139.632 25.784 139.664 26.312 139.664 26.872C139.664 27.928 139.664 28.912 139.664 29.824C139.664 30.72 139.664 31.656 139.664 32.632C139.664 34.584 139.664 36.376 139.664 38.008C139.664 39.624 139.664 41.288 139.664 43H132.488C132.488 41.288 132.488 39.632 132.488 38.032C132.488 36.432 132.488 34.76 132.488 33.016V29.176C132.488 27.768 132.264 26.712 131.816 26.008C131.384 25.288 130.608 24.928 129.488 24.928C128.832 24.928 128.232 25.072 127.688 25.36C127.144 25.648 126.648 26.032 126.2 26.512C125.752 26.976 125.352 27.488 125 28.048V33.016C125 34.808 125 36.496 125 38.08C125 39.648 125 41.288 125 43H117.824ZM147.056 43C147.056 41.288 147.056 39.632 147.056 38.032C147.056 36.432 147.056 34.76 147.056 33.016V29.176C147.056 27.768 146.84 26.712 146.408 26.008C145.976 25.288 145.192 24.928 144.056 24.928C143.4 24.928 142.8 25.072 142.256 25.36C141.712 25.632 141.208 26.008 140.744 26.488C140.296 26.952 139.896 27.472 139.544 28.048L138.464 22.888H139.088C139.664 22.104 140.336 21.368 141.104 20.68C141.872 19.992 142.752 19.44 143.744 19.024C144.752 18.608 145.88 18.4 147.128 18.4C149.512 18.4 151.288 19.12 152.456 20.56C153.64 21.984 154.232 24.088 154.232 26.872C154.232 27.928 154.232 28.912 154.232 29.824C154.232 30.72 154.232 31.656 154.232 32.632C154.232 34.584 154.232 36.376 154.232 38.008C154.232 39.624 154.232 41.288 154.232 43H147.056ZM169.283 43.624C166.195 43.624 163.667 43.08 161.699 41.992C159.747 40.904 158.307 39.408 157.379 37.504C156.467 35.6 156.011 33.416 156.011 30.952C156.011 28.488 156.443 26.312 157.307 24.424C158.171 22.536 159.459 21.064 161.171 20.008C162.899 18.936 165.043 18.4 167.603 18.4C169.779 18.4 171.643 18.792 173.195 19.576C174.747 20.344 175.939 21.512 176.771 23.08C177.603 24.648 178.019 26.624 178.019 29.008C178.019 29.648 178.003 30.216 177.971 30.712C177.939 31.208 177.883 31.704 177.803 32.2L171.659 29.872C171.691 29.664 171.715 29.448 171.731 29.224C171.747 29 171.755 28.792 171.755 28.6C171.755 26.984 171.371 25.72 170.603 24.808C169.851 23.88 168.875 23.416 167.675 23.416C166.763 23.416 165.955 23.688 165.251 24.232C164.547 24.76 163.995 25.504 163.595 26.464C163.195 27.424 162.995 28.568 162.995 29.896V31.072C162.995 32.464 163.243 33.656 163.739 34.648C164.251 35.64 165.035 36.4 166.091 36.928C167.147 37.456 168.499 37.72 170.147 37.72C170.787 37.72 171.523 37.664 172.355 37.552C173.203 37.424 174.059 37.24 174.923 37C175.803 36.744 176.619 36.424 177.371 36.04L177.611 42.088C176.987 42.376 176.259 42.64 175.427 42.88C174.611 43.104 173.683 43.28 172.643 43.408C171.603 43.552 170.483 43.624 169.283 43.624ZM158.771 32.2V28.36L173.627 28.048L177.803 29.224V32.2H158.771ZM180.149 43C180.149 41.288 180.149 39.632 180.149 38.032C180.149 36.416 180.149 34.616 180.149 32.632V30.232C180.149 28.392 180.149 26.544 180.149 24.688C180.149 22.832 180.149 20.952 180.149 19.048L186.173 18.688L186.485 22.864H187.085C187.629 22.08 188.285 21.352 189.053 20.68C189.821 19.992 190.701 19.44 191.693 19.024C192.701 18.608 193.845 18.4 195.125 18.4C197.525 18.4 199.341 19.112 200.573 20.536C201.805 21.944 202.421 24.056 202.421 26.872C202.421 27.928 202.421 28.912 202.421 29.824C202.421 30.72 202.421 31.656 202.421 32.632C202.421 34.584 202.421 36.376 202.421 38.008C202.421 39.624 202.421 41.288 202.421 43H195.269C195.269 41.288 195.269 39.632 195.269 38.032C195.269 36.432 195.269 34.76 195.269 33.016V29.176C195.269 27.768 195.037 26.712 194.573 26.008C194.109 25.288 193.277 24.928 192.077 24.928C191.389 24.928 190.757 25.072 190.181 25.36C189.605 25.632 189.077 26.008 188.597 26.488C188.117 26.952 187.693 27.472 187.325 28.048V33.016C187.325 34.808 187.325 36.496 187.325 38.08C187.325 39.648 187.325 41.288 187.325 43H180.149ZM215.747 43.648C213.971 43.648 212.451 43.384 211.187 42.856C209.939 42.312 208.979 41.448 208.307 40.264C207.651 39.08 207.323 37.52 207.323 35.584C207.323 34.544 207.323 33.48 207.323 32.392C207.323 31.288 207.323 30.136 207.323 28.936C207.323 27.736 207.323 26.472 207.323 25.144C207.323 23.816 207.323 22.384 207.323 20.848C207.323 19.04 207.323 17.384 207.323 15.88C207.323 14.376 207.323 12.84 207.323 11.272L214.379 10C214.379 11.248 214.379 12.432 214.379 13.552C214.379 14.656 214.379 15.8 214.379 16.984C214.379 18.152 214.379 19.44 214.379 20.848V33.328C214.379 34.784 214.643 35.896 215.171 36.664C215.715 37.416 216.595 37.792 217.811 37.792C218.323 37.792 218.883 37.704 219.491 37.528C220.099 37.336 220.683 37.04 221.243 36.64L221.651 42.448C221.235 42.704 220.707 42.92 220.067 43.096C219.427 43.272 218.731 43.408 217.979 43.504C217.227 43.6 216.483 43.648 215.747 43.648ZM203.435 24.448V19.048H221.531V24.448C220.027 24.448 218.515 24.448 216.995 24.448C215.491 24.448 214.035 24.448 212.627 24.448H209.435H203.435ZM258.739 43C258.739 41.16 258.739 39.376 258.739 37.648C258.739 35.92 258.739 33.984 258.739 31.84V20.224C258.739 18.016 258.739 16.024 258.739 14.248C258.739 12.472 258.739 10.648 258.739 8.776H266.659C266.659 10.648 266.659 12.472 266.659 14.248C266.659 16.024 266.659 18.016 266.659 20.224V31.84C266.659 33.984 266.659 35.92 266.659 37.648C266.659 39.376 266.659 41.16 266.659 43H258.739ZM237.403 43C237.403 41.16 237.403 39.376 237.403 37.648C237.403 35.92 237.403 33.984 237.403 31.84V20.224C237.403 18.016 237.403 16.024 237.403 14.248C237.403 12.472 237.403 10.648 237.403 8.776H245.299C245.299 10.648 245.299 12.472 245.299 14.248C245.299 16.024 245.299 18.016 245.299 20.224V31.84C245.299 33.984 245.299 35.92 245.299 37.648C245.299 39.376 245.299 41.16 245.299 43H237.403ZM243.139 29.056V22.48H261.067V29.056H243.139ZM277.435 43.648C275.035 43.648 273.219 42.936 271.987 41.512C270.755 40.088 270.139 37.968 270.139 35.152C270.139 34.08 270.139 33.152 270.139 32.368C270.139 31.584 270.139 30.776 270.139 29.944C270.139 28.36 270.139 26.968 270.139 25.768C270.139 24.552 270.139 23.416 270.139 22.36C270.139 21.288 270.139 20.184 270.139 19.048L277.315 18.832C277.315 20.544 277.315 22.232 277.315 23.896C277.315 25.544 277.315 27.256 277.315 29.032V33.016C277.315 34.408 277.547 35.464 278.011 36.184C278.475 36.888 279.307 37.24 280.507 37.24C281.163 37.24 281.771 37.104 282.331 36.832C282.907 36.544 283.427 36.168 283.891 35.704C284.355 35.224 284.779 34.696 285.163 34.12V29.032C285.163 27.256 285.163 25.576 285.163 23.992C285.163 22.392 285.163 20.744 285.163 19.048H292.339C292.339 20.744 292.339 22.424 292.339 24.088C292.339 25.752 292.339 27.704 292.339 29.944V32.632C292.339 34.616 292.339 36.416 292.339 38.032C292.339 39.632 292.339 41.288 292.339 43H286.315L286.003 39.184H285.379C284.851 39.952 284.203 40.68 283.435 41.368C282.683 42.04 281.803 42.584 280.795 43C279.803 43.432 278.683 43.648 277.435 43.648ZM295.546 43C295.546 41.288 295.546 39.632 295.546 38.032C295.546 36.416 295.546 34.616 295.546 32.632V30.232C295.546 28.392 295.546 26.544 295.546 24.688C295.546 22.832 295.546 20.952 295.546 19.048L301.57 18.688L301.882 22.864H302.482C303.026 22.08 303.682 21.352 304.45 20.68C305.218 19.992 306.098 19.44 307.09 19.024C308.098 18.608 309.242 18.4 310.522 18.4C312.922 18.4 314.738 19.112 315.97 20.536C317.202 21.944 317.818 24.056 317.818 26.872C317.818 27.928 317.818 28.912 317.818 29.824C317.818 30.72 317.818 31.656 317.818 32.632C317.818 34.584 317.818 36.376 317.818 38.008C317.818 39.624 317.818 41.288 317.818 43H310.666C310.666 41.288 310.666 39.632 310.666 38.032C310.666 36.432 310.666 34.76 310.666 33.016V29.176C310.666 27.768 310.434 26.712 309.97 26.008C309.506 25.288 308.674 24.928 307.474 24.928C306.786 24.928 306.154 25.072 305.578 25.36C305.002 25.632 304.474 26.008 303.994 26.488C303.514 26.952 303.09 27.472 302.722 28.048V33.016C302.722 34.808 302.722 36.496 302.722 38.08C302.722 39.648 302.722 41.288 302.722 43H295.546ZM331.144 43.648C329.368 43.648 327.848 43.384 326.584 42.856C325.336 42.312 324.376 41.448 323.704 40.264C323.048 39.08 322.72 37.52 322.72 35.584C322.72 34.544 322.72 33.48 322.72 32.392C322.72 31.288 322.72 30.136 322.72 28.936C322.72 27.736 322.72 26.472 322.72 25.144C322.72 23.816 322.72 22.384 322.72 20.848C322.72 19.04 322.72 17.384 322.72 15.88C322.72 14.376 322.72 12.84 322.72 11.272L329.776 10C329.776 11.248 329.776 12.432 329.776 13.552C329.776 14.656 329.776 15.8 329.776 16.984C329.776 18.152 329.776 19.44 329.776 20.848V33.328C329.776 34.784 330.04 35.896 330.568 36.664C331.112 37.416 331.992 37.792 333.208 37.792C333.72 37.792 334.28 37.704 334.888 37.528C335.496 37.336 336.08 37.04 336.64 36.64L337.048 42.448C336.632 42.704 336.104 42.92 335.464 43.096C334.824 43.272 334.128 43.408 333.376 43.504C332.624 43.6 331.88 43.648 331.144 43.648ZM318.832 24.448V19.048H336.928V24.448C335.424 24.448 333.912 24.448 332.392 24.448C330.888 24.448 329.432 24.448 328.024 24.448H324.832H318.832ZM350.605 43.624C347.517 43.624 344.989 43.08 343.021 41.992C341.069 40.904 339.629 39.408 338.701 37.504C337.789 35.6 337.333 33.416 337.333 30.952C337.333 28.488 337.765 26.312 338.629 24.424C339.493 22.536 340.781 21.064 342.493 20.008C344.221 18.936 346.365 18.4 348.925 18.4C351.101 18.4 352.965 18.792 354.517 19.576C356.069 20.344 357.261 21.512 358.093 23.08C358.925 24.648 359.341 26.624 359.341 29.008C359.341 29.648 359.325 30.216 359.293 30.712C359.261 31.208 359.205 31.704 359.125 32.2L352.981 29.872C353.013 29.664 353.037 29.448 353.053 29.224C353.069 29 353.077 28.792 353.077 28.6C353.077 26.984 352.693 25.72 351.925 24.808C351.173 23.88 350.197 23.416 348.997 23.416C348.085 23.416 347.277 23.688 346.573 24.232C345.869 24.76 345.317 25.504 344.917 26.464C344.517 27.424 344.317 28.568 344.317 29.896V31.072C344.317 32.464 344.565 33.656 345.061 34.648C345.573 35.64 346.357 36.4 347.413 36.928C348.469 37.456 349.821 37.72 351.469 37.72C352.109 37.72 352.845 37.664 353.677 37.552C354.525 37.424 355.381 37.24 356.245 37C357.125 36.744 357.941 36.424 358.693 36.04L358.933 42.088C358.309 42.376 357.581 42.64 356.749 42.88C355.933 43.104 355.005 43.28 353.965 43.408C352.925 43.552 351.805 43.624 350.605 43.624ZM340.093 32.2V28.36L354.949 28.048L359.125 29.224V32.2H340.093ZM361.471 43C361.471 41.288 361.471 39.632 361.471 38.032C361.471 36.416 361.471 34.616 361.471 32.632V30.232C361.471 28.392 361.471 26.544 361.471 24.688C361.471 22.832 361.471 20.952 361.471 19.048L367.495 18.688L367.807 23.104H368.407C369.031 21.808 369.719 20.824 370.471 20.152C371.223 19.464 371.991 19 372.775 18.76C373.559 18.52 374.311 18.4 375.031 18.4C375.399 18.4 375.807 18.432 376.255 18.496C376.719 18.56 377.151 18.672 377.551 18.832L376.927 25.792C376.303 25.744 375.743 25.704 375.247 25.672C374.751 25.64 374.223 25.624 373.663 25.624C373.215 25.624 372.751 25.672 372.271 25.768C371.807 25.864 371.351 26.056 370.903 26.344C370.455 26.632 370.039 27.032 369.655 27.544C369.271 28.056 368.935 28.72 368.647 29.536V33.016C368.647 34.808 368.647 36.496 368.647 38.08C368.647 39.648 368.647 41.288 368.647 43H361.471Z" fill="black"/>
<path d="M32.091 12.1429C32.091 11.6882 31.9088 11.2523 31.585 10.9308C31.2611 10.6094 30.8218 10.4286 30.3637 10.4286C29.9057 10.4286 29.4664 10.6094 29.1425 10.9308C28.8186 11.2523 28.6365 11.6882 28.6365 12.1429V15.6953C29.8551 15.87 31.0164 16.2253 32.091 16.7349V12.1429ZM7.63619 25.8672C6.98045 25.9188 6.35298 26.1552 5.82797 26.5485C5.30271 26.9422 4.90207 27.4781 4.67253 28.0904C4.44311 28.7026 4.39435 29.367 4.53253 30.0056C4.67077 30.6441 4.98941 31.2301 5.45182 31.6948C5.9144 32.1595 6.50185 32.484 7.14365 32.6289C7.43325 32.6942 7.72857 32.7188 8.02246 32.7093C8.29349 30.5808 9.05915 28.5479 10.2608 26.7746C10.0424 26.5731 9.79795 26.3993 9.53212 26.2589C8.95097 25.9522 8.29235 25.8156 7.63619 25.8672ZM30.3806 24.1429C31.3345 24.1429 32.1079 24.9104 32.1079 25.8571C32.1079 26.8039 31.3345 27.5714 30.3806 27.5714H30.3637C29.4098 27.5714 28.6365 26.8039 28.6365 25.8571C28.6365 24.9104 29.4098 24.1429 30.3637 24.1429H30.3806ZM16.5794 13.8571C16.5794 14.0777 16.6243 14.2962 16.7093 14.5C16.7944 14.7038 16.9182 14.8898 17.0754 15.0458L23.2945 21.2165C23.7883 21.7068 23.9362 22.4443 23.6689 23.0848C23.4017 23.7252 22.7716 24.1427 22.0733 24.1429H21.7275C18.9789 24.1429 16.342 25.2273 14.3985 27.1563C12.567 28.9743 11.4915 31.4028 11.3741 33.9598C11.3881 34.1005 11.3844 34.24 11.364 34.3767C11.3639 34.394 11.364 34.4113 11.364 34.4286C11.364 35.7925 11.9103 37.1003 12.882 38.0647C13.8538 39.0292 15.1715 39.5714 16.5457 39.5714H24.7249C24.9372 39.2066 25.0823 38.8048 25.1482 38.3845C25.1711 38.2384 25.1816 38.0909 25.1853 37.9442C25.1839 37.9153 25.182 37.8864 25.182 37.8571C25.182 37.8197 25.183 37.7823 25.1837 37.745C25.169 37.3021 25.0709 36.864 24.8868 36.4559C24.614 35.8516 24.1702 35.3374 23.6099 34.9777C23.0498 34.6182 22.3962 34.4277 21.7292 34.4286C20.7754 34.4296 20.0015 33.6626 20.0002 32.716C19.9993 31.7695 20.772 31.0012 21.7258 31C23.06 30.9984 24.367 31.3807 25.4873 32.0999C26.0191 32.4414 26.496 32.8539 26.9109 33.3203C27.0057 33.2138 27.1043 33.11 27.2061 33.0089C28.5018 31.723 30.2586 31 32.091 31H33.8182C34.2763 31 34.7156 30.8192 35.0395 30.4978C35.3633 30.1763 35.5455 29.7403 35.5455 29.2857V27.5714C35.5455 22.8611 31.6551 19.0001 26.9092 19H26.5634C26.1054 19 25.6661 18.8192 25.3422 18.4978L19.4689 12.6685C19.3119 12.5129 19.1256 12.3895 18.9207 12.3052C18.7154 12.2208 18.4952 12.178 18.273 12.178C17.8241 12.178 17.3928 12.3536 17.0754 12.6685C16.7579 12.9836 16.5794 13.4116 16.5794 13.8571ZM35.5455 19.1942C37.6793 21.3604 39 24.3187 39 27.5714V29.2857C39 30.6496 38.4536 31.9574 37.4819 32.9219C36.5102 33.8863 35.1925 34.4285 33.8182 34.4286H32.091C31.1748 34.4286 30.2964 34.7901 29.6485 35.433C29.0158 36.061 28.6547 36.9072 28.6382 37.7935C28.6417 38.1658 28.6187 38.5392 28.5606 38.9102C28.5256 39.1335 28.4755 39.3539 28.4189 39.5714H30.3637C31.3176 39.5715 32.091 40.339 32.091 41.2857C32.091 42.2324 31.3176 42.9999 30.3637 43H16.5457C14.2553 43 12.0592 42.0962 10.4396 40.4888C9.23124 39.2895 8.41661 37.7722 8.0815 36.1345C7.51111 36.1486 6.93805 36.099 6.37617 35.9721C5.09269 35.6822 3.91928 35.0332 2.9942 34.1038C2.06931 33.1744 1.43031 32.0026 1.15393 30.7254C0.87752 29.448 0.974855 28.1179 1.43393 26.8934C1.89304 25.6691 2.69612 24.6003 3.7465 23.8131C4.79689 23.0259 6.05256 22.5535 7.36462 22.4503C8.6766 22.3473 9.99106 22.6173 11.1531 23.2305C11.6534 23.4945 12.1143 23.8204 12.5312 24.1931C14.1971 22.7186 16.188 21.6752 18.3269 21.1362L14.6329 17.4699C14.1551 16.9956 13.7766 16.4321 13.518 15.8125C13.2593 15.1927 13.1249 14.528 13.1249 13.8571C13.1249 12.5023 13.6677 11.2024 14.6329 10.2444C15.5982 9.28646 16.9079 8.74944 18.273 8.74944C18.9488 8.74947 19.6187 8.88114 20.2431 9.13783C20.8673 9.39455 21.4352 9.77022 21.913 10.2444L25.182 13.4888V12.1429C25.182 10.7789 25.7283 9.47117 26.7001 8.5067C27.6718 7.54228 28.9895 7 30.3637 7C31.738 7.00005 33.0557 7.54227 34.0274 8.5067C34.9991 9.47116 35.5455 10.7789 35.5455 12.1429V19.1942Z" fill="black"/>
</g>
<defs>
<clipPath id="clip0_4563_298">
<rect width="379" height="49" fill="white"/>
</clipPath>
</defs>
</svg>
